<svg xmlns="http://www.w3.org/2000/svg" viewBox="0 0 48.1 50.93"><defs><style>.a{fill:#fff;}</style></defs><title>logo-white</title><path class="a" d="M297.83,631.34a188.75,188.75,0,0,1-1.53-19.13q-.29-9.87,0-19.08l-.93.53a2,2,0,0,1-1,.24,1,1,0,0,1-.76-.36,1.15,1.15,0,0,1-.35-.87v-.18a.41.41,0,0,1,.05-.18,9.11,9.11,0,0,0,1.15-1.81c.45-.86.92-1.71,1.43-2.55s1-1.58,1.47-2.23.88-1,1.23-1a1.06,1.06,0,0,1,.79.26,2.51,2.51,0,0,1,.44.61c.12.24.24.5.38.8a1.52,1.52,0,0,0,.61.67,23,23,0,0,1,3.87-1.82,21,21,0,0,1,4.25-1,17.11,17.11,0,0,1,4.16-.09,10.86,10.86,0,0,1,3.66,1,7.94,7.94,0,0,1,2.81,2.25,7.72,7.72,0,0,1,1.53,3.69,10.42,10.42,0,0,1-1.67,5.42,21,21,0,0,1-4,4.63,32.8,32.8,0,0,1-5.12,3.69q-2.76,1.62-5.07,2.79c-1.55.78-2.81,1.4-3.81,1.87s-1.46.74-1.38.82v21a.63.63,0,0,1-.41.64,1.87,1.87,0,0,1-.76.18C298.45,632.16,298.1,631.88,297.83,631.34Zm2.22-40.49c-.11,1.13-.26,2.37-.44,3.72s-.3,2.73-.38,4.16a32.47,32.47,0,0,0,0,4.19,12.5,12.5,0,0,0,.79,3.69q2.52-1.11,5.28-2.49A43,43,0,0,0,310.6,601a29.58,29.58,0,0,0,4.54-3.9,14.33,14.33,0,0,0,3-4.78,3.22,3.22,0,0,0-1-2.4,8.36,8.36,0,0,0-2.49-1.64,12.89,12.89,0,0,0-3-.91,16.57,16.57,0,0,0-2.55-.26,9.54,9.54,0,0,0-1.91.32c-.88.22-1.8.49-2.75.82a16.5,16.5,0,0,0-2.7,1.2A4.38,4.38,0,0,0,300.05,590.85Z" transform="translate(-278.13 -584.06)"/><path class="a" d="M279,611.72a185.94,185.94,0,0,1,19.13-1.52q9.87-.3,19.07,0c-.19-.36-.37-.67-.52-.94a2,2,0,0,1-.24-1,1.09,1.09,0,0,1,.35-.76,1.22,1.22,0,0,1,.88-.35h.18a.46.46,0,0,1,.18.06,9.66,9.66,0,0,0,1.81,1.14q1.29.67,2.55,1.44c.84.5,1.58,1,2.23,1.46s1,.88,1,1.23a1,1,0,0,1-.26.79,2.32,2.32,0,0,1-.62.44c-.23.12-.49.25-.79.38a1.49,1.49,0,0,0-.67.62,22.28,22.28,0,0,1,1.82,3.87,20.86,20.86,0,0,1,1.05,4.24,17.13,17.13,0,0,1,.09,4.16,11,11,0,0,1-1,3.67,8,8,0,0,1-2.25,2.81,7.71,7.71,0,0,1-3.69,1.52,10.3,10.3,0,0,1-5.42-1.67,21,21,0,0,1-4.63-4,32.42,32.42,0,0,1-3.69-5.13q-1.62-2.76-2.79-5.07c-.78-1.54-1.4-2.81-1.87-3.81s-.75-1.45-.82-1.37H279a.64.64,0,0,1-.64-.41,2,2,0,0,1-.18-.77C278.13,612.34,278.4,612,279,611.72ZM319.44,614c-1.13-.12-2.37-.27-3.72-.44s-2.74-.31-4.16-.38a32.47,32.47,0,0,0-4.19,0,12.19,12.19,0,0,0-3.69.79c.74,1.68,1.57,3.43,2.49,5.27a42.27,42.27,0,0,0,3.13,5.27,29.11,29.11,0,0,0,3.9,4.54,14.17,14.17,0,0,0,4.78,3,3.25,3.25,0,0,0,2.4-1,8.62,8.62,0,0,0,1.64-2.49,13.11,13.11,0,0,0,.91-3,16.57,16.57,0,0,0,.26-2.55,9.36,9.36,0,0,0-.32-1.9c-.22-.88-.49-1.8-.82-2.76a18.27,18.27,0,0,0-1.2-2.69A4.31,4.31,0,0,0,319.44,614Z" transform="translate(-278.13 -584.06)"/></svg>